<?xml version="1.0" encoding="UTF-8"?><svg id="a" xmlns="http://www.w3.org/2000/svg" viewBox="0 0 700 700"><defs><style>.b{fill:#fff;}</style></defs><path class="b" d="M183.79,555.54v-91.58c-6.52,5.08-12.06,9.4-17.9,13.96-7.07-8.94-13.91-17.58-21.04-26.59,1.19-1.08,2.27-2.17,3.46-3.12,35.42-27.99,70.83-55.99,106.33-83.87,2.51-1.97,3.21-4.01,3.61-7.08,1.51-11.71-2.03-18.92-12.84-26.05-35.68-23.53-51.19-65.79-41.76-107.26,9.05-39.81,42.25-70.89,83.3-78.01,63.59-11.03,122.61,41.11,119.32,105.58-.19,3.76,1.67,4.93,4.21,6.38,45.83,26.15,91.59,52.45,137.55,78.36,5.44,3.07,7.27,6.34,7.1,12.45-.45,16.23-.23,32.48-.09,48.73,.03,3.11-.93,4.73-3.8,6.07-16.63,7.76-33.12,15.83-49.79,23.51-1.83,.85-4.93,.66-6.7-.34-11.32-6.42-22.5-13.1-33.54-19.99-1.57-.98-2.96-3.52-3.05-5.4-.36-7.11-.14-14.24-.14-22.37-7.31,2.89-14.11,5.27-20.63,8.28-4.05,1.87-7.14,1.47-10.82-.93-7.31-4.77-15.07-8.86-22.38-13.63-1.68-1.1-3.16-3.76-3.27-5.78-.39-7.1-.15-14.24-.15-22.19-7.61,3.04-14.72,5.68-21.66,8.73-3.31,1.45-5.88,1.23-8.91-.76-5.96-3.9-12.15-7.48-18.38-10.93-1.49-.82-3.89-1.43-5.27-.81-22.87,10.23-46.35,12.11-71.26,5.21,0,6.53-.04,12.66,.06,18.79,.01,.75,.62,1.7,1.23,2.21,8.68,7.31,17.41,14.56,27.13,22.66v-16.35h34.1c.1,1.93,.28,3.83,.28,5.72,.03,10.89,.31,21.79-.12,32.66-.2,5.06,1.62,8.16,5.42,11.2,11.4,9.14,22.51,18.63,34.17,28.35-7.35,8.83-14.48,17.38-21.88,26.27-5.7-4.69-11.03-9.07-17.24-14.18v92.1H183.79Zm184.02-282.65c15.68-46.38-13.85-81.57-43-90.72-33.65-10.57-69.85,5.79-83.99,38.15-13.28,30.39-.49,64.63,17.29,76.83,0-2.17,0-4.09,0-6.02,.02-16.96-.26-33.92,.14-50.87,.39-16.14,15.02-28.51,31.06-26.95,16.35,1.59,27.83,16.41,25.49,32.88-2.21,15.53-17.75,26.54-33.32,23.59-1.98-.38-3.92-.95-6.24-1.52,0,12.51,.17,24.46-.1,36.4-.09,3.85,1.13,5.72,4.75,6.98,23.33,8.12,44.96,4.85,64.89-9.53,2.71-1.96,4.61-2.41,7.48-.46,4.41,3.01,9.57,5.04,13.64,8.41,8.64,7.15,16.98,8.14,26.25,1.29,1.4-1.03,4.76-.64,6.55,.31,6.6,3.53,12.62,8.25,19.42,11.25,9.26,4.08,12.85,10.16,11.51,20.23-.88,6.62,4.7,9.73,10.7,6.75,2.87-1.43,5.9-2.62,8.58-4.34,2.68-1.72,4.73-1.25,7.25,.33,6.64,4.18,13.16,8.7,20.24,11.98,8.23,3.82,11.85,9.25,10.16,18.29-.36,1.9-.12,5,1.08,5.91,3.95,2.99,8.22,6.05,12.86,7.4,2.25,.66,5.47-2.79,8.46-3.72,10.56-3.28,13.24-10.59,11.93-20.81-.45-3.53-1.17-5.65-4.44-7.5-31.84-17.95-63.56-36.11-95.31-54.2-17.8-10.14-35.6-20.26-53.34-30.35Zm-64.39,248.5c.16-1.08,.39-1.93,.39-2.79,.02-26.92,.08-53.85-.1-80.77-.01-1.94-1.39-4.41-2.92-5.72-11.22-9.64-22.72-18.96-33.95-28.59-2.62-2.25-4.27-1.99-6.79,.04-12.49,10.06-25.06,20.04-37.78,29.8-3,2.3-4.21,4.65-4.18,8.44,.16,24.78,.08,49.57,.1,74.35,0,1.71,.21,3.42,.32,5.23h84.92Z"/></svg>