<?xml version="1.0" encoding="UTF-8"?><svg id="a" xmlns="http://www.w3.org/2000/svg" viewBox="0 0 700 700"><defs><style>.b{fill:#0071ce;}</style></defs><path class="b" d="M149.01,352.34c0-8.94,0-17.87,0-26.81,.48-1.7,1.19-3.37,1.4-5.11,4.83-40.82,23.3-74.88,53.58-101.88,57.02-50.83,124.09-65.69,197.64-49.21,59.14,13.25,105.8,45.5,132.84,101.12,8.27,17.02,11.17,36.65,16.53,55.08v26.81c-.48,1.7-1.19,3.37-1.4,5.11-4.86,40.8-23.3,74.88-53.57,101.87-57.01,50.84-123.85,64.67-197.71,49.65-3.81-.77-8.49-.93-11.9,.57-30.36,13.39-62.05,22-94.7,27.24-3.66,.59-9.55,.48-10.96-1.63-1.71-2.55-.26-7.68,.7-11.48,5.31-20.95,11.13-41.77,16.1-62.8,.75-3.19-1.33-7.69-3.33-10.79-10.11-15.66-22.61-30.13-30.42-46.82-7.4-15.82-10.04-33.87-14.78-50.93Zm65.29,156.44c21.49-7.73,41.92-14.59,61.93-22.5,8.42-3.33,16.15-4.35,25.03-2.37,61.33,13.7,118.37,4.56,168.56-34.77,71.45-56.01,75.12-151.23,8.86-212.84-62.26-57.9-167.61-64.93-238.05-15.37-42.47,29.88-67.71,69.8-66.36,123.21,.88,34.79,15.17,64.45,39.05,89.44,7.77,8.13,11.61,16.88,9.39,28.22-2.85,14.54-5.25,29.18-8.41,46.99Z"/><path class="b" d="M349.59,288.28c-27.96,0-55.93,.02-83.89,0-10.39-.01-16.1-4.48-16-12.37,.1-7.7,5.52-12.13,15.48-12.14,56.52-.06,113.05-.06,169.57,0,11.12,.01,17.16,5.94,15.18,14.72-1.63,7.22-6.54,9.9-13.77,9.86-28.86-.14-57.71-.06-86.57-.06Z"/><path class="b" d="M350.03,351.1c-27.96,0-55.92,.02-83.88,0-10.78-.01-16.27-4.04-16.46-11.91-.19-7.88,5.5-12.39,15.96-12.39,56.52-.03,113.04,.27,169.55-.24,12.32-.11,17.25,9.96,14.21,16.92-2.67,6.09-7.52,7.69-13.7,7.67-28.56-.11-57.11-.05-85.67-.05Z"/><path class="b" d="M313,389.59c15.77,0,31.53-.06,47.3,.02,9.41,.05,14.28,4.21,14.39,11.97,.11,7.74-4.8,12.45-14.03,12.49-32.42,.15-64.85,.15-97.27,0-8.44-.04-13.61-5-13.68-12.12-.08-7.45,5.33-12.27,14.22-12.32,16.36-.09,32.72-.03,49.08-.03Z"/></svg>