<?xml version="1.0" encoding="UTF-8"?><svg id="a" xmlns="http://www.w3.org/2000/svg" viewBox="0 0 700 700"><defs><style>.b{fill:#fff;}</style></defs><path class="b" d="M555.13,350.22c0,55.07,.07,110.14-.03,165.21-.04,22.35-15.95,38.12-38.49,38.16-58.01,.1-116.03,.03-174.04,.04-51.83,0-103.65,.06-155.48-.02-4.82,0-9.81-.15-14.44-1.33-16.71-4.27-27.68-18.64-27.73-36.16-.11-39.71-.06-79.42-.06-119.13,0-48.6,0-97.19,.01-145.79,0-22.49-.08-44.98,.06-67.46,.13-21.28,16.21-37.28,37.65-37.31,60.78-.09,121.55-.04,182.33-.04,50.83,0,101.66-.07,152.5,.04,21.45,.05,37.63,16.03,37.68,37.28,.12,50.35,.04,100.7,.05,151.05,0,5.16,0,10.31,0,15.47Zm-372.82,166.18h180.27v-124.84h-48.48v-55.59h48.69c0-2.15-.03-3.89,0-5.64,.39-17.2-.35-34.52,1.44-51.58,3.36-32.04,27.66-54.91,60.03-56.98,15.27-.98,30.68,.04,46.02,.23,2.73,.03,5.46,.44,8.25,.69v50.36c-2.49,0-4.68-.03-6.88,0-10.27,.17-20.58-.15-30.79,.67-12.18,.98-18.56,7.35-19.19,19.5-.73,13.89-.39,27.84-.5,41.77,0,.29,.25,.58,.53,1.2h54.79c-2.35,18.63-4.65,36.87-7.01,55.51h-48.17v124.71h96.31V183.61H182.31v332.79Z"/></svg>