<?xml version="1.0" encoding="UTF-8"?><svg id="a" xmlns="http://www.w3.org/2000/svg" viewBox="0 0 700 700"><defs><style>.b{fill:#fff;}</style></defs><path class="b" d="M179.73,351.1c0-57.47,0-114.93,0-172.4,0-16.44,4.1-20.56,20.5-20.56,78.28-.01,156.56,.07,234.85-.13,7.56-.02,13.32,2.08,18.84,7.29,18.89,17.83,38.06,35.38,57.38,52.75,6.13,5.51,9,11.61,8.98,19.97-.18,94.76-.1,189.52-.13,284.28,0,15.35-4.33,19.67-19.54,19.68-101.52,0-203.04,0-304.57,0-13.96,0-16.31-2.39-16.31-16.64-.01-58.08,0-116.16,0-174.24Zm51.57,170.26c0-4.13,0-7.43,0-10.73,0-39.73-.01-79.46,0-119.19,0-14.19,2.43-16.65,16.31-16.65,64.51,0,129.02,0,193.53,0,14.41,0,16.1,1.74,16.11,16.54,.02,39.73,0,79.46,0,119.19,0,3.53,0,7.06,0,10.46h41.54c.24-1.79,.54-2.98,.54-4.17,.03-91.99,.09-183.98-.16-275.97,0-3.36-2.31-7.52-4.85-9.94-14.59-13.93-30.6-26.51-44.11-41.38-12.1-13.33-25.9-11.53-41.14-10.25,0,15.83,.03,31.07,0,46.32-.03,13.42-2.7,16.17-16.02,16.18-45.86,.04-91.72,.03-137.58,0-14.02,0-16.06-2.01-16.11-15.82-.06-15.52-.01-31.05-.01-46.77h-38.64v342.18h30.6Zm21.08-125.95v125.63h183.77v-125.63H252.37Zm7.86-174.59h127.83v-41.77h-127.83v41.77Z"/><path class="b" d="M344.85,449.95c15.26,0,30.53,.11,45.79-.05,7.41-.08,13.08,2.18,12.89,10.47-.18,7.63-5.67,10.03-12.63,10.03-30.83-.04-61.67-.05-92.5,0-7.39,.01-12.99-2.48-12.88-10.7,.11-7.84,5.6-9.88,12.62-9.8,15.57,.16,31.14,.05,46.71,.05Z"/><path class="b" d="M343.89,507.21c-15.26,0-30.51-.13-45.77,.06-7.05,.08-12.45-1.99-12.6-9.8-.16-8.35,5.61-10.61,12.91-10.61,30.82,.03,61.63,.02,92.45,0,6.88,0,12.5,2.23,12.66,9.98,.17,8.39-5.66,10.45-12.97,10.4-15.56-.12-31.12-.04-46.68-.03Z"/><path class="b" d="M344.84,412.79c15.25,0,30.51,.01,45.76,0,7.16,0,13.15,1.86,12.95,10.43-.19,7.93-5.96,9.9-12.7,9.91-30.81,.04-61.62,.01-92.43,.02-7.22,0-13.04-2.11-12.89-10.58,.14-8.02,5.81-9.81,12.64-9.79,15.56,.04,31.12,.01,46.67,.01Z"/></svg>