<?xml version="1.0" encoding="UTF-8"?><svg id="a" xmlns="http://www.w3.org/2000/svg" viewBox="0 0 700 700"><defs><style>.b{fill:#fff;}</style></defs><path class="b" d="M150.3,378.74c2.39-3.61,4.58-6.92,6.76-10.24,6.23-9.47,14.06-17.44,22.99-24.34,15.36-11.87,32.5-20.41,50.66-27.08,28.18-10.35,57.36-15.81,87.19-18.23,25.31-2.05,50.62-1.87,75.88,.7,28.38,2.89,56.11,8.79,82.62,19.6,18.93,7.72,36.52,17.7,51.58,31.77,8.63,8.06,15.38,17.55,21.71,27.83H150.3Z"/><path class="b" d="M151.83,445.44v-55.86h396.44v55.86H151.83Z"/><path class="b" d="M527.99,331.14c-14.55-11.29-30.29-19.54-47.11-26.54,.55-3.74,.55-7.79,1.79-11.41,2.92-8.48-.58-14.42-6.51-19.87-12.48-11.47-27.43-17.15-44-19.15-9.09-1.1-18.17-.96-27.13,1.01-8.42,1.85-16.23,5.11-22.6,11.15-.87,.82-1.55,2.12-1.78,3.3-.86,4.4-1.5,8.85-2.24,13.36h-56.74c-.67-4.11-1.31-8.63-2.2-13.09-.27-1.33-1-2.8-1.98-3.71-7.82-7.23-17.41-10.63-27.73-11.95-18.38-2.34-35.9,.69-52.33,9.35-7.92,4.18-14.73,9.72-19.76,17.29-1.28,1.92-1.64,3.75-1.23,5.99,.98,5.39,1.78,10.82,2.67,16.23,.21,1.27,.26,2.21-1.36,2.86-15.6,6.34-30.45,14.07-43.99,24.16-.43,.32-.93,.55-1.66,.97-.05-1.08-.11-1.87-.11-2.65,0-27.87,.02-55.74-.05-83.61,0-1.92,.55-2.83,2.32-3.65,18.08-8.37,36.78-15,56.01-20.23,20.66-5.62,41.64-9.47,62.87-11.97,27.24-3.21,54.59-4.16,81.96-2.77,16.98,.86,33.96,2.61,50.83,4.79,18.75,2.42,37.17,6.79,55.27,12.32,15.51,4.74,30.67,10.41,45.3,17.47,1.15,.56,1.71,1.1,1.71,2.51-.05,28.77-.03,57.55-.03,86.32,0,.31-.07,.63-.16,1.51Z"/><path class="b" d="M184.02,494.4h-32.11v-38.46h32.11v38.46Z"/><path class="b" d="M516.07,455.84h32.22v38.49h-32.22v-38.49Z"/></svg>