<?xml version="1.0" encoding="UTF-8"?><svg id="a" xmlns="http://www.w3.org/2000/svg" viewBox="0 0 700 700"><defs><style>.b{fill:#fff;}</style></defs><path class="b" d="M349.9,562.86c-37.06-1.8-74.42-1.32-111.12-5.94-58.88-7.41-98.66-50.74-100.36-109.32-1.86-64.17-2.29-128.49-.18-192.63,2.3-69.95,49.06-114.96,119.62-116.67,61.49-1.49,123.07-1.6,184.56,0,72.07,1.89,119.36,51.67,120.18,124.47,.64,56.31,.89,112.65,0,168.95-.67,42.49-12.39,80.73-50.51,106.09-20.77,13.82-43.97,20.91-68.66,21.61-31.13,.88-62.3,.21-93.46,.21-.02,1.07-.05,2.15-.07,3.22Zm-177.04-210.56l1.2,.04c0,15.86-.34,31.74,.09,47.59,.45,16.22,.44,32.6,2.76,48.61,6.48,44.71,27.16,68.76,71.35,71.05,66.85,3.46,134.1,3.72,200.98,.75,45.24-2.01,68.55-27.34,72.76-72.06,3.45-36.62,3.94-73.61,3.89-110.43-.04-32.02-1.07-64.22-4.61-96.02-3.97-35.66-29.74-59.4-65.71-63.37-67.31-7.43-134.85-6.35-202.21-1.72-47.95,3.3-73.92,30.93-76.63,78.18-1.86,32.43-2.62,64.92-3.88,97.38Z"/><path class="b" d="M458.59,347.28c1.39,58.87-45.81,107.56-103.96,110.59-56.84,2.96-113.66-39.9-115.69-105.05-1.88-60.47,45.5-109.81,104.15-112.9,64.37-3.4,115.47,48.15,115.5,107.37Zm-181.48,.68c-.36,39.83,30.51,71.06,70.53,71.32,40.12,.27,73.17-30.84,73.36-69.03,.2-40.78-31.54-72.85-72.24-73-39.6-.15-71.29,31.12-71.65,70.71Z"/><path class="b" d="M489.26,234.63c.18,13.9-11.7,25.58-25.94,25.49-13.05-.07-25.37-12.25-25.35-25.06,.02-13.21,11.76-25.31,24.9-25.67,13.8-.37,26.22,11.5,26.39,25.24Z"/></svg>