<svg xmlns="http://www.w3.org/2000/svg" xmlns:xlink="http://www.w3.org/1999/xlink" width="800" zoomAndPan="magnify" viewBox="0 0 600 449.999984" height="600" preserveAspectRatio="xMidYMid meet" version="1.0"><rect x="-60" width="720" fill="#ffffff" y="-44.999998" height="539.99998" fill-opacity="1"/><rect x="-60" width="720" fill="#ffffff" y="-44.999998" height="539.99998" fill-opacity="1"/><rect x="-60" width="720" fill="#ffffff" y="-44.999998" height="539.99998" fill-opacity="1"/><path fill="#ee7623" d="M 299.917969 39.082031 C 198.121094 39.082031 115.320312 121.902344 115.320312 223.683594 C 115.320312 325.464844 198.121094 408.285156 299.917969 408.285156 C 401.714844 408.285156 484.488281 325.464844 484.488281 223.683594 C 484.488281 121.902344 401.683594 39.082031 299.917969 39.082031 Z M 134.546875 223.683594 C 134.546875 209.261719 136.414062 195.28125 139.878906 181.933594 C 151.976562 103.480469 219.804688 43.402344 301.640625 43.402344 C 392.054688 43.402344 465.351562 116.699219 465.351562 207.09375 C 465.351562 210.113281 465.257812 213.070312 465.097656 216.011719 C 465.210938 218.558594 465.289062 221.121094 465.289062 223.667969 C 465.289062 234.707031 464.214844 245.492188 462.109375 255.929688 C 410.714844 210.621094 359.300781 165.3125 307.921875 119.957031 C 304.648438 117.109375 301.59375 113.996094 298.449219 111.039062 L 297.089844 111.039062 C 293.941406 114.011719 290.855469 117.109375 287.617188 119.957031 C 237.453125 164.238281 187.289062 208.453125 137.109375 252.6875 C 135.433594 243.261719 134.566406 233.550781 134.566406 223.667969 Z M 299.917969 389.054688 C 229.371094 389.054688 169.007812 344.648438 145.285156 282.308594 C 145.730469 281.800781 146.203125 281.308594 146.710938 280.882812 C 190.058594 242.613281 233.433594 204.359375 276.8125 166.121094 C 283.710938 160.046875 290.636719 153.972656 297.71875 147.742188 C 298.9375 148.769531 299.980469 149.625 300.960938 150.511719 C 346.617188 190.757812 392.273438 231.003906 437.898438 271.285156 C 442.609375 275.425781 447.148438 279.746094 451.765625 284 L 453.128906 284 C 453.617188 283.398438 454.09375 282.78125 454.550781 282.179688 C 430.910156 344.582031 370.480469 389.054688 299.902344 389.054688 Z M 299.917969 389.054688 " fill-opacity="1" fill-rule="nonzero"/><path fill="#ee7623" d="M 220.246094 132.957031 C 220.167969 138.347656 220.121094 143.757812 219.898438 149.136719 C 219.851562 150.367188 219.488281 151.964844 218.648438 152.707031 C 204.78125 165.1875 190.800781 177.539062 176.296875 190.425781 L 176.296875 126.078125 L 220.261719 126.078125 C 220.261719 128.339844 220.292969 130.632812 220.261719 132.941406 Z M 220.246094 132.957031 " fill-opacity="1" fill-rule="nonzero"/><path fill="#ffa727" d="M 265.269531 225.898438 L 293.832031 225.898438 L 293.832031 254.457031 L 265.269531 254.457031 Z M 265.269531 225.898438 " fill-opacity="1" fill-rule="nonzero"/><path fill="#ffa727" d="M 303.128906 225.898438 L 331.691406 225.898438 L 331.691406 254.457031 L 303.128906 254.457031 Z M 303.128906 225.898438 " fill-opacity="1" fill-rule="nonzero"/><path fill="#ffa727" d="M 264.730469 260.5 L 293.292969 260.5 L 293.292969 289.058594 L 264.730469 289.058594 Z M 264.730469 260.5 " fill-opacity="1" fill-rule="nonzero"/><path fill="#ffa727" d="M 302.605469 260.5 L 331.167969 260.5 L 331.167969 289.058594 L 302.605469 289.058594 Z M 302.605469 260.5 " fill-opacity="1" fill-rule="nonzero"/></svg>