<?xml version="1.0" encoding="UTF-8"?><svg id="a" xmlns="http://www.w3.org/2000/svg" viewBox="0 0 700 700"><defs><style>.c{fill:#fff;}</style></defs><g><g id="b"><g><path class="c" d="M163.59,241.54c-59.81,0-108.46,48.66-108.46,108.46s48.65,108.46,108.46,108.46,108.45-48.66,108.45-108.46-48.65-108.46-108.45-108.46Zm-97.16,108.46c0-8.47,1.09-16.69,3.14-24.53,7.11-46.1,46.96-81.39,95.04-81.39,53.12,0,96.19,43.07,96.19,96.18,0,1.77-.05,3.51-.15,5.24,.07,1.5,.11,3,.11,4.5,0,6.49-.64,12.82-1.86,18.96-30.2-26.62-60.41-53.24-90.6-79.89-1.92-1.68-3.72-3.5-5.57-5.24h-.8c-1.85,1.74-3.66,3.57-5.57,5.24-29.47,26.01-58.95,52-88.43,77.99-.99-5.54-1.5-11.24-1.5-17.05Zm97.16,97.16c-41.45,0-76.92-26.1-90.85-62.72,.26-.3,.54-.58,.84-.84,25.47-22.49,50.96-44.96,76.45-67.43,4.05-3.57,8.12-7.14,12.28-10.8,.72,.61,1.32,1.11,1.91,1.62,26.83,23.65,53.65,47.3,80.46,70.96,2.77,2.43,5.43,4.97,8.15,7.47h.8c.28-.35,.57-.72,.84-1.07-13.89,36.66-49.39,62.8-90.87,62.8Z"/><path class="c" d="M116.78,296.69c-.05,3.17-.08,6.34-.21,9.51-.03,.72-.25,1.66-.74,2.1-8.15,7.33-16.36,14.59-24.88,22.16v-37.81h25.83c0,1.33,.02,2.68,0,4.04Z"/></g></g><rect class="c" x="143.23" y="351.3" width="16.78" height="16.78"/><rect class="c" x="165.48" y="351.3" width="16.78" height="16.78"/><rect class="c" x="142.92" y="371.63" width="16.78" height="16.78"/><rect class="c" x="165.17" y="371.63" width="16.78" height="16.78"/></g><g><g><path class="c" d="M332.89,319.2h-12.53v37.48h-8.9v-37.48h-12.53v-7.83h33.97v7.83Z"/><path class="c" d="M378.31,311.31v24.61c0,3.02-.45,5.84-1.36,8.45-.91,2.61-2.22,4.89-3.94,6.83-1.72,1.95-3.82,3.48-6.29,4.59-2.48,1.11-5.3,1.67-8.48,1.67s-5.9-.55-8.39-1.64c-2.5-1.1-4.62-2.6-6.38-4.51-1.76-1.91-3.11-4.16-4.05-6.75-.95-2.59-1.42-5.38-1.42-8.36v-24.89h8.79v24.95c0,1.74,.25,3.37,.74,4.91,.49,1.53,1.21,2.86,2.15,4,.94,1.13,2.13,2.03,3.54,2.69,1.42,.66,3.03,.99,4.85,.99,1.93,0,3.6-.31,5.02-.94,1.42-.62,2.59-1.49,3.52-2.61,.93-1.11,1.62-2.43,2.1-3.94,.47-1.51,.71-3.17,.71-4.99v-25.06h8.9Z"/><path class="c" d="M433.48,356.68h-29.94v-45.31h29.94v7.26h-21.32v10.83h21.04v7.09h-21.04v12.47h21.32v7.65Z"/><path class="c" d="M478,356.68h-8.62l-20.47-31.81v31.81h-8.62v-45.36h9.87l19.22,29.6v-29.6h8.62v45.36Z"/><path class="c" d="M517.18,356.68h-30.68v-45.31h8.96v36.8h21.72v8.51Z"/><path class="c" d="M568.04,356.68h-9.64l-4.2-9.07h-22l-4.25,9.07h-9.64l21.43-45.36h6.86l21.43,45.36Zm-17.29-16.39l-7.54-16.33-7.65,16.33h15.2Z"/><path class="c" d="M610.34,348.51c-2.27,2.76-5.02,4.95-8.25,6.58-3.23,1.62-6.8,2.44-10.69,2.44-3.37,0-6.52-.61-9.47-1.84-2.95-1.23-5.51-2.9-7.7-5.02-2.18-2.12-3.9-4.6-5.16-7.46-1.26-2.85-1.89-5.93-1.89-9.21s.63-6.36,1.89-9.21c1.26-2.85,2.98-5.35,5.16-7.48,2.18-2.14,4.75-3.81,7.7-5.02,2.95-1.21,6.1-1.81,9.47-1.81,3.89,0,7.46,.81,10.69,2.44,3.23,1.63,5.93,3.74,8.08,6.35l-6.07,6.24c-1.4-2-3.2-3.62-5.42-4.85-2.21-1.23-4.64-1.84-7.29-1.84-2.12,0-4.11,.41-5.98,1.22-1.87,.81-3.51,1.91-4.9,3.29-1.4,1.38-2.5,2.99-3.32,4.82-.81,1.83-1.22,3.79-1.22,5.87s.41,3.98,1.22,5.81c.81,1.83,1.92,3.44,3.32,4.82,1.4,1.38,3.03,2.48,4.9,3.29,1.87,.81,3.86,1.22,5.98,1.22,2.8,0,5.27-.63,7.43-1.9,2.15-1.27,3.95-2.94,5.39-5.02l6.12,6.29Z"/><path class="c" d="M644.87,356.68h-29.94v-45.31h29.94v7.26h-21.32v10.83h21.04v7.09h-21.04v12.47h21.32v7.65Z"/></g><g><path class="c" d="M339.65,388.86c-.29-.27-.43-.6-.43-1v-18.22c0-.41,.14-.75,.43-1.01,.29-.26,.64-.39,1.06-.39s.8,.13,1.07,.39c.28,.26,.42,.6,.42,1.01v18.22c0,.4-.14,.73-.42,1s-.63,.4-1.07,.4-.77-.13-1.06-.4Z"/><path class="c" d="M352.63,388.88c-.28-.26-.42-.6-.42-1.01v-18.22c0-.41,.14-.75,.42-1.01,.28-.26,.62-.39,1.05-.39,.21,0,.42,.05,.63,.15,.21,.1,.38,.22,.52,.36l12.48,15.61v-14.72c0-.41,.14-.75,.43-1.01,.29-.26,.64-.39,1.06-.39s.77,.13,1.05,.39c.28,.26,.42,.6,.42,1.01v18.22c0,.41-.14,.75-.42,1.01-.28,.26-.63,.39-1.05,.39-.21,0-.42-.04-.64-.12-.22-.08-.39-.2-.5-.36l-12.48-15.61v14.69c0,.4-.14,.73-.42,1-.28,.27-.63,.4-1.07,.4s-.77-.13-1.05-.39Z"/><path class="c" d="M402.24,368.65c.29,.27,.43,.6,.43,1v18.22c0,.4-.15,.73-.44,1-.3,.27-.64,.4-1.05,.4s-.77-.13-1.06-.4-.43-.6-.43-1v-13.38l-6.93,13.27c-.32,.47-.75,.7-1.29,.7-.63,0-1.09-.28-1.37-.83l-6.84-12.89v13.13c0,.4-.14,.73-.43,1-.29,.27-.64,.4-1.06,.4s-.77-.13-1.06-.4-.43-.6-.43-1v-18.22c0-.39,.14-.73,.43-1s.64-.4,1.06-.4c.57,0,1.01,.25,1.32,.75l8.5,16.01,8.27-16.01c.31-.5,.74-.75,1.32-.75,.42,0,.77,.13,1.06,.4Z"/><path class="c" d="M417.11,388.16c-1.73-.91-3.07-2.19-4.02-3.84-.95-1.64-1.43-3.5-1.43-5.58s.48-3.94,1.43-5.57c.95-1.63,2.29-2.91,4.02-3.82,1.73-.92,3.7-1.37,5.91-1.37s4.16,.46,5.88,1.37c1.73,.91,3.07,2.19,4.04,3.82,.96,1.63,1.45,3.49,1.45,5.57s-.48,3.94-1.45,5.58c-.96,1.64-2.3,2.92-4.02,3.84-1.72,.91-3.68,1.37-5.9,1.37s-4.18-.46-5.91-1.37Zm10.29-2.25c1.3-.73,2.31-1.72,3.04-2.97,.72-1.26,1.09-2.65,1.09-4.2s-.36-2.94-1.09-4.2c-.73-1.26-1.73-2.24-3.02-2.96-1.29-.72-2.75-1.08-4.39-1.08s-3.11,.36-4.39,1.08c-1.29,.72-2.3,1.71-3.02,2.96-.73,1.26-1.09,2.65-1.09,4.2s.36,2.94,1.09,4.2c.73,1.26,1.74,2.25,3.04,2.97,1.3,.73,2.76,1.09,4.38,1.09s3.08-.36,4.38-1.09Z"/><path class="c" d="M443.78,388.86c-.29-.27-.43-.6-.43-1v-18.22c0-.41,.14-.75,.43-1.01,.29-.26,.64-.39,1.06-.39h6.84c1.28,0,2.41,.24,3.41,.71s1.77,1.14,2.33,1.99c.56,.85,.84,1.82,.84,2.89,0,.88-.25,1.67-.76,2.37-.51,.7-1.2,1.26-2.08,1.7,1.3,.29,2.32,.86,3.06,1.72,.74,.86,1.12,1.96,1.12,3.28,0,1.22-.31,2.31-.93,3.28-.62,.97-1.49,1.72-2.61,2.26-1.12,.54-2.38,.81-3.79,.81h-7.44c-.42,0-.77-.13-1.06-.4Zm7.9-11.98c1.13,0,2.03-.26,2.71-.78,.68-.52,1.02-1.27,1.02-2.26s-.34-1.74-1.02-2.25c-.68-.51-1.58-.77-2.71-.77h-5.35v6.06h5.35Zm.6,9.8c1.34,0,2.41-.33,3.24-.98,.82-.65,1.23-1.58,1.23-2.78,0-1.11-.41-1.96-1.22-2.56-.81-.59-1.89-.89-3.25-.89h-5.96v7.21h5.96Z"/><path class="c" d="M468.77,388.86c-.29-.27-.43-.6-.43-1v-18.22c0-.41,.14-.75,.43-1.01,.29-.26,.64-.39,1.06-.39s.8,.13,1.07,.39c.28,.26,.42,.6,.42,1.01v18.22c0,.4-.14,.73-.42,1-.28,.27-.63,.4-1.07,.4s-.77-.13-1.06-.4Z"/><path class="c" d="M481.76,388.86c-.28-.27-.41-.6-.41-1v-18.22c0-.39,.14-.73,.43-1,.29-.27,.63-.4,1.03-.4s.77,.13,1.06,.4c.29,.27,.43,.6,.43,1v16.82h10.36c.42,0,.77,.13,1.06,.4,.29,.27,.43,.6,.43,1s-.14,.73-.43,1c-.29,.27-.64,.4-1.06,.4h-11.85c-.42,0-.77-.13-1.05-.4Z"/><path class="c" d="M504.45,388.86c-.29-.27-.43-.6-.43-1v-18.22c0-.41,.14-.75,.43-1.01,.29-.26,.64-.39,1.06-.39s.8,.13,1.07,.39c.28,.26,.41,.6,.41,1.01v18.22c0,.4-.14,.73-.41,1-.28,.27-.63,.4-1.07,.4s-.77-.13-1.06-.4Z"/><path class="c" d="M533.88,387.89c0,.38-.14,.7-.43,.97s-.64,.4-1.06,.4c-.29,0-.56-.08-.82-.23-.26-.15-.44-.36-.56-.63l-1.6-3.77h-10.28l-1.63,3.77c-.13,.27-.32,.48-.57,.63-.25,.15-.51,.23-.8,.23-.42,0-.77-.14-1.04-.42-.28-.28-.42-.61-.42-.98,0-.18,.05-.39,.14-.62l8.05-18.06c.29-.63,.75-.94,1.4-.94,.69,0,1.16,.31,1.4,.94l8.07,18.11c.1,.23,.14,.43,.14,.59Zm-13.74-5.57h8.28l-4.1-9.58-4.18,9.58Z"/><path class="c" d="M556.24,388c0,.36-.13,.66-.39,.9-.26,.24-.61,.36-1.05,.36-.55,0-.98-.22-1.29-.67l-4.92-7.43h-4.18v6.7c0,.4-.14,.73-.41,1-.28,.27-.63,.4-1.07,.4s-.77-.13-1.06-.4c-.29-.27-.43-.6-.43-1v-18.22c0-.41,.14-.75,.43-1.01,.29-.26,.64-.39,1.06-.39h5.15c1.41,0,2.68,.28,3.79,.83,1.12,.56,1.98,1.34,2.61,2.34,.62,1.01,.93,2.15,.93,3.45s-.34,2.4-1.03,3.39c-.69,.99-1.62,1.73-2.81,2.23l4.38,6.62c.19,.29,.29,.58,.29,.89Zm-8.16-9.42c1.3,0,2.37-.34,3.21-1.04,.84-.69,1.26-1.58,1.26-2.68,0-1.18-.42-2.15-1.26-2.91-.84-.75-1.91-1.13-3.21-1.13h-3.67v7.75h3.67Z"/><path class="c" d="M564.26,388.86c-.29-.27-.43-.6-.43-1v-18.22c0-.41,.14-.75,.43-1.01,.29-.26,.64-.39,1.06-.39s.8,.13,1.07,.39c.28,.26,.42,.6,.42,1.01v18.22c0,.4-.14,.73-.42,1-.28,.27-.63,.4-1.07,.4s-.77-.13-1.06-.4Z"/><path class="c" d="M581.25,388.16c-1.73-.91-3.07-2.19-4.02-3.84-.96-1.64-1.43-3.5-1.43-5.58s.48-3.94,1.43-5.57c.95-1.63,2.29-2.91,4.02-3.82,1.73-.92,3.7-1.37,5.91-1.37s4.16,.46,5.88,1.37c1.73,.91,3.07,2.19,4.04,3.82,.96,1.63,1.45,3.49,1.45,5.57s-.48,3.94-1.45,5.58c-.96,1.64-2.3,2.92-4.02,3.84-1.72,.91-3.68,1.37-5.9,1.37s-4.19-.46-5.91-1.37Zm10.29-2.25c1.3-.73,2.31-1.72,3.03-2.97,.73-1.26,1.09-2.65,1.09-4.2s-.36-2.94-1.09-4.2c-.73-1.26-1.73-2.24-3.02-2.96-1.29-.72-2.75-1.08-4.39-1.08s-3.11,.36-4.39,1.08c-1.29,.72-2.3,1.71-3.02,2.96-.73,1.26-1.09,2.65-1.09,4.2s.36,2.94,1.09,4.2c.73,1.26,1.74,2.25,3.03,2.97,1.3,.73,2.76,1.09,4.38,1.09s3.08-.36,4.38-1.09Z"/></g></g></svg>