<?xml version="1.0" encoding="UTF-8"?><svg id="a" xmlns="http://www.w3.org/2000/svg" viewBox="0 0 700 700"><defs><style>.b{fill:#ee7623;}</style></defs><path class="b" d="M564.45,301.48c-4.07,22.26-10.58,43.59-22.64,63.02-20.36,32.81-47.78,59.22-76.46,84.41-31.73,27.88-63.83,55.34-95.8,82.94-12.77,11.02-25,12.03-36.82,1.73-43.33-37.76-86.92-75.25-129.27-114.1-26.11-23.95-48.06-51.69-59.85-85.91-3.58-10.39-5.43-21.38-8.07-32.1,0-8.9,0-17.8,0-26.69,2.55-11.07,4.21-22.43,7.79-33.15,28.45-85.17,131.64-110.2,192.97-46.95,4.75,4.9,9.08,10.22,13.86,15.64,2.7-3.24,4.91-5.92,7.15-8.57,54.58-64.38,151.83-54.18,190.72,20.91,8.25,15.94,11.09,34.68,16.42,52.13v26.69Zm-216.71,215.34c3.68-2.61,4.78-3.25,5.72-4.07,35.04-30.38,70.9-59.87,104.77-91.5,21.23-19.83,41.62-41.31,58.53-64.83,27.78-38.62,31.19-81.3,8.67-123.98-28.27-53.59-97.79-64.46-141.33-22.55-7.69,7.4-13.7,16.6-20.16,25.2-8,10.66-19.89,10.92-27.64,.25-2.98-4.1-5.55-8.53-8.67-12.51-23.99-30.61-54.47-45.06-93.55-36.14-53.6,12.24-78.75,66.51-72.63,115.29,3.92,31.29,18.64,57.93,40.49,79.13,47.59,46.16,96.97,90.47,145.8,135.71Z"/></svg>