<?xml version="1.0" encoding="UTF-8"?><svg id="a" xmlns="http://www.w3.org/2000/svg" viewBox="0 0 700 700"><defs><style>.b{fill:#fff;}</style></defs><path class="b" d="M163.03,536.8V163.2h173.68v25.98H190.93V509.18H510.06v-146.24h26.91v173.86H163.03Z"/><path class="b" d="M259.49,286.29h21.47c.52,3.32,1.03,6.5,1.6,10.15,26.34-16.67,51.54-20.22,74.52,5.56,14.73-16.8,33.21-21.36,54.48-16.61,16.23,3.62,26.89,14.15,27.54,30.15,1.35,33.02,.41,66.14,.41,99.9h-21.96c0-19.48,.01-38.64,0-57.8,0-8.88,.3-17.78-.18-26.64-1.06-19.7-8.1-26.82-25.71-26.74-17.92,.07-29.05,10.41-29.4,28.48-.44,22.78-.12,45.57-.13,68.35,0,4.56,0,9.12,0,14.34h-24.33c0-5.15,0-10.39,0-15.62-.04-23.56,.26-47.12-.24-70.67-.37-17.61-9.4-25.28-27.57-24.85-17.11,.41-27.34,10.01-27.39,26.02-.09,28.12-.03,56.25-.03,85.09h-23.08v-129.08Z"/><path class="b" d="M478.18,263.62h37.07v15.19h-65.24c2.65-6.74,3.75-13.42,7.42-18.07,7.39-9.35,16.36-17.44,24.3-26.38,3.81-4.28,7.74-8.93,9.85-14.12,2.52-6.2,2.97-13.71-4.94-16.78-6.94-2.69-12.57-.12-15.81,7.36-3.27,7.56-3.62,7.4-19.8,5.46-1.4-12.16,4.47-20.75,14.51-26,12.81-6.7,26.45-6.71,38.35,1.98,9.31,6.8,12.42,17.62,7.59,27.95-4.62,9.89-11.84,18.64-18.43,27.5-3.61,4.86-8.29,8.93-14.89,15.9Z"/></svg>