<?xml version="1.0" encoding="UTF-8"?><svg id="a" xmlns="http://www.w3.org/2000/svg" viewBox="0 0 700 700"><defs><style>.b{fill:#fff;}</style></defs><path class="b" d="M137.81,376.35c71.5-71.48,142.3-142.27,214.68-214.63,25.24,25.45,51.36,51.79,78.15,78.8v-51.36h53.19c.14,3.05,.43,6.39,.43,9.73,.03,29.95-.18,59.89,.25,89.83,.06,4.18,2.15,9.33,5.06,12.3,24.09,24.53,48.59,48.65,72.62,75.32-9.89,0-19.79,0-29.68,0-21.12,0-21.25-.03-25.33,20.47-7.82,39.28-15.52,78.58-23.19,117.88-2.76,14.12-12.68,23.38-27.18,23.42-71.36,.21-142.72,.21-214.08,0-14.1-.04-24.12-9.11-26.79-22.67-8.65-43.97-17.37-87.93-25.79-131.94-1.05-5.5-3.25-7.38-8.78-7.26-14.48,.32-28.97,.11-43.54,.11Zm185.51,28.52h53.35v106.01h80.89c10.32-54.53,20.67-108.55,30.48-162.68,.68-3.73-1.57-9.31-4.36-12.15-35.12-35.64-70.62-70.91-105.95-106.34-9.17-9.2-18.11-18.64-28.41-29.27-2.54,3.38-4.02,5.93-6.04,7.95-42.1,42.19-84.13,84.44-126.56,126.3-5.36,5.28-6.21,10.18-4.89,16.86,4.5,22.77,8.68,45.61,13.02,68.41,5.75,30.25,11.54,60.49,17.33,90.83h81.14v-105.92Z"/></svg>