<?xml version="1.0" encoding="UTF-8"?><svg id="a" xmlns="http://www.w3.org/2000/svg" viewBox="0 0 700 700"><defs><style>.b{fill:#fff;}</style></defs><path class="b" d="M537.43,145.33v409.34h-249.77v-76.7h-125.1V152.51h74.42v-7.18h300.44Zm-28.28,213.72h-48.45v-27.83h48.45v-103.54h-93.9v104.5h14.71v25.09h-30.7c-9.33,21.21-27.61,28.86-43.25,27.88v-12.71c2.52-.27,4.89-.46,7.24-.79,16.78-2.32,26.92-17.92,27.06-31.17,.46-44.76,.17-89.54,.17-134.3v-3.76h118.61v-29.39h-244.22v7.24h-26.12v94.3h48.96v-12.39h27.47v40.51h-76.72v40.44h-48.1v106.78h97.33v-117.17h27.7v193.63h193.75v-167.33ZM210.51,201.01v-20.68h-20.15v20.68h20.15Zm.05,95.36h-20.2v18.87h20.2v-18.87Zm-20.3-58.87h20.27v-13.87h-20.27v13.87Zm.04-18.34h20.18v-13.83h-20.18v13.83Zm.03,36.51h20.17v-13.82h-20.17v13.82Zm.04,4.29v13.75h20.14v-13.75h-20.14Zm-.06,32.04h20.21v-13.69h-20.21v13.69Z"/></svg>