<?xml version="1.0" encoding="UTF-8"?><svg id="a" xmlns="http://www.w3.org/2000/svg" viewBox="0 0 700 700"><defs><style>.b{fill:#fff;}</style></defs><path class="b" d="M258.22,536.97c-2.25-1.2-2.8-3.12-2.8-5.57,.04-75.09,.03-150.17,.04-225.26,0-45.84,.03-91.68-.01-137.52,0-2.47,.62-4.33,2.78-5.58h2.67c3.81,4.24,7.68,8.42,11.41,12.72,26.95,31.16,53.88,62.34,80.81,93.52,46,53.27,91.99,106.54,137.99,159.81,28.84,33.39,57.69,66.77,86.53,100.17,.66,.76,1.25,1.58,1.88,2.37v5.34c-107.1,0-214.19,0-321.29,0Zm308.33-8.18c-101.04-116.98-201.8-233.64-302.88-350.66v65.03c1.19,0,2.25,0,3.31,0,7.63,0,15.26-.02,22.89,.01,2.2,0,3.71,1.27,4.12,3.24,.39,1.86-.58,3.81-2.4,4.48-.8,.3-1.74,.33-2.62,.33-7.69,.02-15.39,.01-23.08,.01-.74,0-1.47,0-2.23,0v19.51c.81,0,1.5,0,2.18,0,2.93,0,5.85-.06,8.77,.02,2.49,.06,4.18,1.77,4.18,4.04,0,2.28-1.68,3.94-4.2,3.99-2.99,.06-5.98,0-8.97,.03-.66,0-1.33,.09-1.95,.13v19.4c.89,0,1.64,0,2.39,0,7.76,0,15.52,.02,23.27,0,1.61,0,3.26,.23,3.93,1.76,.5,1.16,.68,2.73,.33,3.93-.5,1.74-2.11,2.4-3.93,2.4-7.95,0-15.9,0-23.85,0-.73,0-1.46,0-2.15,0v19.5c.83,0,1.52,0,2.21,0,2.93,0,5.85-.06,8.78,.02,3.15,.08,5.02,2.98,3.74,5.73-.79,1.69-2.22,2.32-4.04,2.31-3.54-.03-7.08,0-10.69,0v19.55c4.14,0,8.14,0,12.13,0,4.77,0,9.54-.04,14.31,.05,2.35,.04,3.95,1.8,3.96,4.04,0,2.14-1.55,3.75-3.84,3.96-.69,.06-1.4,.04-2.1,.04-7.38,0-14.75,0-22.13,0-.75,0-1.49,0-2.33,0v19.53c.84,0,1.52,0,2.21,0,2.99,0,5.98-.01,8.97,.03,1.68,.03,2.91,.86,3.59,2.39,.68,1.55,.54,3.17-.71,4.22-.94,.78-2.34,1.31-3.57,1.37-3.47,.18-6.95,.06-10.47,.06v19.5c2.07,0,3.97,0,5.87,0,6.74,0,13.48-.03,20.22,.02,3.25,.03,5.25,3.05,3.89,5.75-.87,1.73-2.37,2.32-4.25,2.31-7.82-.03-15.64,0-23.47,0-.74,0-1.48,0-2.32,0v19.37c.72,.04,1.33,.1,1.95,.11,3.05,.02,6.11-.06,9.16,.05,2.43,.09,3.99,1.75,4.04,3.98,.05,2.21-1.56,3.91-3.94,4.06-1.58,.09-3.18,.04-4.77,.04-2.13,0-4.26,0-6.41,0v19.52c.81,0,1.5,0,2.18,0,7.82,0,15.64,0,23.47-.02,1.77,0,3.3,.41,4.22,2.04,1.64,2.91-.39,6.03-4.01,6.06-7.88,.05-15.77,.01-23.66,.02-.73,0-1.47,.06-2.2,.09v19.32c.75,.03,1.38,.08,2,.08,3.12,.02,6.23-.05,9.35,.05,2.22,.07,3.77,1.84,3.78,4.01,0,2.05-1.51,3.73-3.63,3.97-.75,.08-1.52,.05-2.29,.05-3.03,0-6.07,0-9.2,0v29.15h302.86Z"/><path class="b" d="M221.59,163.03c2.31,1.07,3.04,2.91,3.04,5.4-.03,121.08-.04,242.16,0,363.25,0,2.34-.75,4.04-2.66,5.29H120.49V163.03h101.1Zm-92.96,250.17c.79,0,1.47,0,2.15,0,5.85,0,11.7,0,17.55,0,2.29,0,4.58-.07,6.87,.02,2.28,.09,3.84,1.73,3.89,3.9,.05,2.15-1.46,3.83-3.71,4.1-.57,.07-1.14,.04-1.71,.04-7.76,0-15.51,.04-23.27-.03-1.52-.01-1.98,.44-1.91,1.95,.12,2.67,.03,5.34,.04,8.01,0,2.97,0,5.94,0,9.07,.89,.04,1.57,.09,2.25,.09,2.99,.01,5.98-.04,8.97,.03,2.38,.05,4.02,1.71,4.06,3.93,.04,2.31-1.6,3.98-4.09,4.1-.82,.04-1.65,0-2.48,0-2.84,0-5.68,0-8.58,0v19.09c3.59,0,7.07,0,10.55,0,5.21,0,10.43-.04,15.64,.02,2.92,.03,4.83,2.46,4.13,5.09-.49,1.85-2.07,2.96-4.36,2.97-8.01,.02-16.02,.04-24.04-.02-1.5-.01-2.13,.3-2.09,1.98,.11,5.08,.1,10.17,0,15.26-.03,1.52,.43,1.98,1.94,1.93,3.11-.11,6.23-.1,9.35,0,2.41,.07,4,1.73,4.02,3.98,.02,2.26-1.56,3.92-3.93,4.05-1.27,.07-2.54,.02-3.81,.02-2.45,0-4.91,0-7.39,0v26.03h87.71V171.3h-87.68v78.79c.92,0,1.68,0,2.43,0,7.82,0,15.64-.01,23.46,.01,2.69,0,4.43,1.56,4.49,3.89,.07,2.48-1.63,4.14-4.39,4.15-7.95,.03-15.9,0-23.85,.01-.73,0-1.47,.07-2.17,.11v19c3.51,0,6.87-.01,10.24,0,3.05,.01,4.93,1.6,4.9,4.09-.03,2.53-1.84,4-4.98,4.02-2.8,.01-5.6,0-8.39,.01-.6,0-1.2,.09-1.82,.14v18.92c1.61,0,3.11,0,4.62,0,7.06,0,14.12-.01,21.18,0,2.63,0,4.26,1.23,4.61,3.36,.44,2.68-1.5,4.72-4.58,4.72-7.89,.02-15.77,0-23.66,0-.73,0-1.45,.07-2.11,.11v18.99c.85,0,1.54,0,2.23,0,2.99,0,5.98-.03,8.97,.03,1.85,.04,3.14,1.01,3.71,2.77,.57,1.76,.12,3.39-1.41,4.38-.89,.58-2.12,.83-3.21,.86-3.41,.11-6.82,.04-10.34,.04v19.1c.97,0,1.84,0,2.71,0,7.69,0,15.39,0,23.08,0,2.45,0,4.04,1.08,4.53,2.99,.71,2.74-1.2,5.04-4.33,5.05-7.88,.03-15.77,.01-23.66,.01h-2.34v19.01c.77,.03,1.45,.09,2.13,.09,2.93,0,5.85-.05,8.77,0,2.52,.05,4.21,1.68,4.25,3.96,.04,2.31-1.57,3.97-4.08,4.12-1.2,.07-2.42,.04-3.62,.04-2.46,0-4.91,0-7.46,0v19.1Z"/><path class="b" d="M383.37,479.81c-21.81,0-43.62,0-65.42,0-4.09,0-5.34-1.24-5.34-5.34,0-50.92,0-101.85,0-152.77,0-2.64,.84-4.2,2.65-4.79,2.2-.71,3.75,.3,5.15,1.93,23.21,26.9,46.43,53.79,69.66,80.68,20.9,24.2,41.8,48.39,62.69,72.59,.41,.48,.86,.95,1.19,1.48,1.68,2.7,.09,5.91-3.06,6.2-.57,.05-1.14,.02-1.72,.02-21.93,0-43.87,0-65.8,0Zm58.3-8.18c-40.36-46.72-80.44-93.13-120.86-139.92v139.92h120.86Z"/><path class="b" d="M152.81,204.3c-.03-10.91,8.78-19.75,19.72-19.79,10.75-.05,19.64,8.8,19.71,19.62,.07,10.99-8.83,19.92-19.82,19.88-10.8-.03-19.58-8.86-19.6-19.71Zm31.35,0c.02-6.39-5.28-11.72-11.61-11.68-6.45,.04-11.67,5.23-11.67,11.61,0,6.4,5.22,11.67,11.61,11.7,6.35,.03,11.66-5.26,11.67-11.63Z"/></svg>