<?xml version="1.0" encoding="UTF-8"?><svg id="a" xmlns="http://www.w3.org/2000/svg" viewBox="0 0 700 700"><defs><style>.b{fill:#fff;}</style></defs><path class="b" d="M439.5,160.63c5.46,1.65,11.29,2.57,16.33,5.08,17.92,8.93,27.09,23.96,27.22,43.79,.31,45.48,.1,90.97,.1,136.46v4.78c5.93,0,11.56-.01,17.19,0,12.88,.04,24.38,9.78,26.39,22.35,2.13,13.32-5.78,26.3-18.59,30.14-2.28,.68-3.14,1.9-3.38,4.02-1.53,13.42-2.98,26.85-4.63,40.26-1.63,13.28-3.07,26.59-5.3,39.77-2.3,13.58-16.42,25.76-30.13,26.94-.84,.07-1.68,.21-3.01,.38,0,3.85-.28,7.65,.06,11.39,.58,6.29-1.89,10.63-7.46,13.37h-42.17c-5.48-2.26-8.18-6.14-7.72-12.26,.3-4.01,.06-8.05,.06-12.3h-108.96c0,4.09-.22,8.01,.05,11.9,.43,6.15-1.98,10.37-7.72,12.66h-42.17c-5.6-2.72-8.03-7.09-7.46-13.37,.33-3.66,.06-7.37,.06-10.38-5.62-2.03-11.12-3.35-15.99-5.91-10.62-5.57-16.51-14.86-18.02-26.65-2.66-20.83-5.01-41.71-7.49-62.56-.49-4.14-1-8.29-1.46-12.44-.28-2.6-1.24-4.09-4.12-4.98-12.22-3.77-20.11-16.66-17.91-29.85,2.14-12.87,12.63-22.38,25.83-22.45,39.2-.19,78.4-.07,117.6-.07,47.58,0,95.17,0,142.75,.02,1.1,0,2.19,0,3.85,0v-4.11c0-44.99-.09-89.99,.06-134.98,.04-11.17-3.62-20.28-12.99-26.51-8.74-5.81-18.28-6.44-27.71-1.99-10.15,4.79-15.59,13.2-16.4,24.41-.26,3.66-.04,7.36-.04,11.2,10.7,2.44,19.53,7.67,26.45,15.9,7.62,9.08,11.53,19.56,11.27,31.47-.12,5.27-4.58,9.12-10.47,9.13-22.44,.03-44.87,.01-67.31,.01-2.59,0-5.18,.06-7.77-.01-5.37-.15-10-4.54-9.83-9.91,.58-18.54,8.94-32.58,25.11-41.74,3.05-1.73,6.48-2.84,9.85-3.89,2.27-.71,2.99-1.79,2.9-4.15-.35-9.66,.49-19.19,5.04-27.96,7.76-14.97,19.93-23.91,36.71-26.42,.59-.09,1.14-.38,1.71-.57h9.62Zm-224.77,244.3c1.02,9.16,1.93,17.95,2.98,26.72,1.87,15.61,3.96,31.19,5.71,46.81,1.19,10.63,7.48,16.52,18.32,16.52,72.36,0,144.73,0,217.09,0,10.08,0,16.64-6.34,17.71-16.39,1.64-15.38,3.64-30.73,5.49-46.09,1.1-9.12,2.19-18.24,3.32-27.57H214.74Zm135.29-20.03c48.68,0,97.37,0,146.05,0,1.6,0,3.44,.4,4.75-.24,2.16-1.05,4.8-2.39,5.77-4.34,2.64-5.28-1.49-10.05-8.44-10.07-19.84-.06-39.67-.06-59.51-.06-73.07,0-146.14,.03-219.21,.04-6.16,0-12.32-.09-18.48,0-3.36,.05-6.3,1.16-7.69,4.58-1.16,2.85-.95,6.03,1.46,7.67,2.23,1.52,5.39,2.31,8.14,2.32,49.05,.13,98.11,.1,147.16,.1Zm72.13-129.6c-3.3-10.54-14.34-18.07-26.23-17.82-11.76,.25-22.67,7.86-25.35,17.82h51.58Zm2.01,259.47v4.64h17.53v-4.64h-17.53Zm-148.29,.03h-17.56v4.44h17.56v-4.44Z"/></svg>