<?xml version="1.0" encoding="UTF-8"?><svg id="a" xmlns="http://www.w3.org/2000/svg" viewBox="0 0 700 700"><defs><style>.b{fill:#fff;}</style></defs><path class="b" d="M143.5,352.4c0-9.18,0-18.36,0-27.54,.49-1.75,1.22-3.47,1.44-5.25,4.97-41.94,23.94-76.94,55.05-104.67,58.58-52.23,127.49-67.49,203.06-50.56,60.76,13.62,108.7,46.75,136.48,103.89,8.5,17.48,11.48,37.65,16.98,56.59v27.54c-.49,1.75-1.22,3.47-1.44,5.25-4.99,41.92-23.94,76.93-55.04,104.67-58.57,52.23-127.24,66.44-203.14,51.01-3.91-.8-8.72-.96-12.23,.59-31.19,13.76-63.75,22.61-97.3,27.99-3.76,.6-9.81,.49-11.26-1.67-1.76-2.62-.27-7.9,.72-11.79,5.45-21.52,11.44-42.92,16.54-64.52,.77-3.28-1.37-7.9-3.42-11.08-10.38-16.09-23.23-30.95-31.25-48.1-7.61-16.25-10.32-34.79-15.18-52.33Zm67.08,160.73c22.08-7.94,43.07-14.99,63.63-23.12,8.65-3.42,16.6-4.47,25.72-2.43,63.02,14.08,121.62,4.69,173.18-35.73,73.41-57.54,77.18-155.38,9.1-218.68-63.97-59.49-172.2-66.71-244.58-15.79-43.63,30.7-69.56,71.72-68.18,126.59,.9,35.74,15.58,66.22,40.12,91.89,7.98,8.35,11.93,17.35,9.65,28.99-2.93,14.94-5.39,29.98-8.64,48.28Z"/><path class="b" d="M349.57,286.59c-28.73,0-57.46,.02-86.19,0-10.67-.01-16.54-4.6-16.44-12.71,.1-7.91,5.67-12.47,15.9-12.48,58.07-.06,116.15-.06,174.22,0,11.43,.01,17.63,6.1,15.6,15.12-1.67,7.42-6.72,10.17-14.15,10.13-29.65-.15-59.3-.06-88.94-.06Z"/><path class="b" d="M350.03,351.13c-28.73,0-57.45,.02-86.18,0-11.07-.01-16.72-4.15-16.91-12.24-.2-8.09,5.65-12.73,16.39-12.73,58.07-.03,116.13,.28,174.2-.24,12.65-.11,17.73,10.24,14.6,17.39-2.74,6.26-7.72,7.91-14.08,7.88-29.34-.12-58.68-.05-88.02-.05Z"/><path class="b" d="M311.98,390.67c16.2,0,32.4-.06,48.6,.02,9.67,.05,14.67,4.32,14.78,12.3,.11,7.95-4.93,12.79-14.41,12.83-33.31,.15-66.63,.15-99.94,0-8.67-.04-13.98-5.14-14.06-12.46-.08-7.65,5.48-12.61,14.61-12.66,16.81-.1,33.62-.03,50.43-.03Z"/></svg>