<?xml version="1.0" encoding="UTF-8"?><svg id="a" xmlns="http://www.w3.org/2000/svg" viewBox="0 0 700 700"><defs><style>.b{fill:#fff;}</style></defs><path class="b" d="M187.59,386.5c-1.07,13.78-9.73,15.07-20.48,14.71-16.78-.57-33.6-.12-50.4-.17-8.71-.03-12.54-3.82-12.54-12.54-.03-59.84-.03-119.68,0-179.52,0-8.32,4.1-13.08,11.64-12.56,30.05,2.08,60.05,4.74,89.06,13.57,5.41,1.65,10.52,4.44,15.58,7.08,5.9,3.07,7.63,8.23,6.33,14.6-.35,1.7-.49,3.43-.79,5.54,1.73,.08,3.11,.21,4.5,.21,24.32,.01,48.64,.09,72.96-.11,2.59-.02,5.57-1.14,7.69-2.68,15.44-11.23,32.15-18.15,51.67-16.18,11.86,1.2,22.81,5.5,33.7,10.02,17.61,7.31,35.26,14.52,52.9,21.76,1.25,.52,2.55,.94,3.93,1.45-1.39-7.67,.76-11.42,7.82-14.33,20.45-8.43,41.79-13.53,63.67-15.95,19.49-2.16,39.1-3.27,58.67-4.6,8.09-.55,12.31,4.06,12.32,12.83,.04,29.44,.02,58.88,.01,88.32,0,30.08,0,60.16-.07,90.24-.02,9.98-3.52,13.51-13.56,13.56-18.07,.09-36.13,.03-54.2,.02-9.38,0-11.99-1.95-14.83-10.9-.56-1.77-1.22-3.52-1.98-5.7-4.94,3.27-9.5,6.16-13.87,9.31-.9,.65-1.61,2.35-1.51,3.48,1.96,21.37-15.61,36.22-31.41,37.25-1.88,.12-4.31,1.84-5.32,3.52-7.68,12.73-23.66,20.49-38.39,18.63-1.43-.18-3.7,1.24-4.59,2.58-6.29,9.46-14.53,16.22-25.87,18.09-4.58,.75-9.44-.21-14.18-.38-1.34-.05-3.03-.61-3.99-.01-14.51,9.1-29.2,6.49-44.06,1.09-13.61-4.95-24.56-14.09-35.73-22.77-23.82-18.52-47.7-36.98-70.87-56.28-11.26-9.37-20.99-20.58-31.41-30.95-.45-.45-.93-.86-2.42-2.22Zm166.81,96.42c-13.89-14.35-27.12-28-40.33-41.68-1.21-1.25-2.33-2.62-3.3-4.06-2.25-3.36-2.23-6.93-.27-10.34,2.09-3.64,5.52-5.76,9.58-4.78,2.89,.69,5.89,2.43,8.02,4.53,15.62,15.36,31.04,30.91,46.5,46.43,4.1,4.11,8.71,6.82,14.54,4.24,4.9-2.17,8.88-5.55,10.56-10.48-15.02-15.46-29.83-30.69-44.64-45.92-3.07-3.16-5.96-6.45-4.78-11.31,.91-3.75,3.04-6.58,6.98-7.73,4.91-1.42,8.46,.6,11.85,4.03,15.27,15.48,30.58,30.91,46.04,46.2,8.38,8.28,21.88,5.36,26.6-5.6-.51-.55-1.03-1.15-1.59-1.72-18.27-18.36-36.55-36.71-54.81-55.08-3.01-3.03-5.49-6.39-4.25-11,1.05-3.89,3.28-6.63,7.54-7.69,4.73-1.18,7.93,.91,10.98,3.98,18.72,18.81,37.51,37.56,56.17,56.44,3.44,3.48,7.09,3.9,11.28,2.1,7.82-3.36,11.02-11.6,5.94-18.41-6.73-9.04-13.78-18.18-22.21-25.53-29.99-26.12-60.61-51.51-91.1-77.05-1.06-.89-3.41-.99-4.85-.51-4.52,1.51-8.75,4.09-13.34,5.08-4.51,.97-7.69,3.05-10.63,6.41-12.42,14.21-27.84,20.85-46.87,17.9-19.57-3.04-30.34-15.33-26.42-35.27,2.71-13.8,9.57-25.5,17.78-36.56,2.87-3.86,6.04-7.49,9.34-11.55h-62.17c-1.33,6.22-2.38,12.34-3.97,18.31-7.46,28.1-15.04,56.16-22.67,84.21-.68,2.5-.76,4.22,1.26,6.37,20.22,21.41,41.26,41.89,64.81,59.69,20.49,15.49,40.72,31.32,61.35,46.62,8.83,6.55,19.03,9.95,31.07,9.73Zm131.92-85.91c4.9-3.26,9.73-6.64,14.72-9.74,2.78-1.72,3.82-3.43,2.57-6.82-12.17-32.92-24.16-65.91-36.37-98.81-.66-1.78-2.58-3.67-4.36-4.39-28.29-11.43-56.66-22.67-85.01-33.97-17.1-6.82-33.43-6.35-49.1,4.33-13.05,8.89-24.53,19.53-34.75,31.4-7.91,9.18-14.27,19.56-16.62,31.83-.72,3.74-.56,7.49,3.72,8.61,4.54,1.19,9.36,2.15,14,1.95,10.25-.44,16.92-7.13,23.19-14.45,2.59-3.02,5.67-6.23,9.21-7.68,7.88-3.25,16.53-4.72,24.24-8.27,7.82-3.61,13.17-1.9,19.25,3.57,13.89,12.47,28.34,24.33,42.63,36.36,25.02,21.06,51.47,40.54,72.67,66.09Zm-8.55-143.45c3.14,7.44,6.64,14.76,9.37,22.36,14.53,40.34,28.92,80.73,43.2,121.16,1.09,3.08,2.4,4.13,5.68,4.07,11.5-.24,23-.11,34.5-.15,1.52,0,3.04-.19,4.59-.29V237.92c-21.55-1.87-83.61,8.13-97.35,15.63ZM124.96,217.64v162.92h43.23c.42-1.03,.92-2.02,1.24-3.06,13.65-45.04,27.27-90.09,35.36-136.58,1.61-9.25,1.88-9.36-7.3-11.89-23.6-6.49-47.82-9.16-72.52-11.39Z"/></svg>