<?xml version="1.0" encoding="UTF-8"?><svg id="a" xmlns="http://www.w3.org/2000/svg" viewBox="0 0 700 700"><defs><style>.c{fill:#ee7623;}.d{fill:#0071ce;}.e{fill:#ffa727;}</style></defs><g><g id="b"><g><path class="c" d="M149.39,233.27c-64.37,0-116.73,52.37-116.73,116.73s52.36,116.73,116.73,116.73,116.71-52.37,116.71-116.73-52.36-116.73-116.71-116.73Zm-104.57,116.73c0-9.12,1.18-17.96,3.37-26.4,7.65-49.61,50.54-87.6,102.29-87.6,57.17,0,103.52,46.35,103.52,103.51,0,1.91-.06,3.78-.16,5.64,.07,1.61,.12,3.23,.12,4.84,0,6.98-.68,13.8-2.01,20.4-32.5-28.65-65.01-57.3-97.5-85.98-2.07-1.8-4-3.77-5.99-5.64h-.86c-1.99,1.88-3.94,3.84-5.99,5.64-31.72,28-63.44,55.96-95.17,83.93-1.06-5.96-1.61-12.1-1.61-18.35Zm104.57,104.57c-44.61,0-82.78-28.08-97.78-67.5,.28-.32,.58-.63,.9-.9,27.41-24.2,54.84-48.39,82.27-72.57,4.36-3.84,8.74-7.68,13.22-11.62,.77,.65,1.43,1.19,2.05,1.75,28.87,25.45,57.74,50.9,86.59,76.37,2.98,2.62,5.85,5.35,8.77,8.04h.86c.31-.38,.61-.77,.9-1.15-14.95,39.46-53.16,67.58-97.79,67.58Z"/><path class="c" d="M99.01,292.63c-.05,3.41-.08,6.83-.22,10.23-.03,.78-.26,1.79-.79,2.26-8.77,7.89-17.61,15.7-26.78,23.85v-40.69h27.8c0,1.43,.02,2.88,0,4.34Z"/></g></g><rect class="e" x="127.48" y="351.4" width="18.06" height="18.06"/><rect class="e" x="151.42" y="351.4" width="18.06" height="18.06"/><rect class="e" x="127.14" y="373.28" width="18.06" height="18.06"/><rect class="e" x="151.09" y="373.28" width="18.06" height="18.06"/></g><g><g><path class="d" d="M331.59,316.85h-13.49v40.34h-9.58v-40.34h-13.49v-8.42h36.55v8.42Z"/><path class="d" d="M380.47,308.37v26.48c0,3.25-.49,6.29-1.46,9.09-.98,2.81-2.39,5.26-4.24,7.35-1.85,2.1-4.11,3.74-6.77,4.94-2.67,1.2-5.71,1.8-9.12,1.8s-6.35-.59-9.03-1.77c-2.69-1.18-4.97-2.8-6.87-4.85-1.89-2.05-3.35-4.47-4.36-7.26-1.02-2.79-1.53-5.79-1.53-9v-26.79h9.46v26.85c0,1.87,.26,3.63,.79,5.28,.53,1.65,1.3,3.08,2.32,4.3,1.02,1.22,2.29,2.19,3.81,2.9s3.26,1.07,5.22,1.07c2.08,0,3.88-.34,5.4-1.01,1.53-.67,2.79-1.61,3.78-2.81,1-1.2,1.75-2.61,2.26-4.24,.51-1.63,.76-3.42,.76-5.37v-26.97h9.58Z"/><path class="d" d="M439.84,357.19h-32.22v-48.76h32.22v7.81h-22.95v11.66h22.64v7.63h-22.64v13.42h22.95v8.24Z"/><path class="d" d="M487.75,357.19h-9.28l-22.03-34.23v34.23h-9.28v-48.82h10.62l20.69,31.85v-31.85h9.28v48.82Z"/><path class="d" d="M529.91,357.19h-33.01v-48.76h9.64v39.6h23.37v9.15Z"/><path class="d" d="M584.65,357.19h-10.37l-4.52-9.76h-23.68l-4.58,9.76h-10.37l23.07-48.82h7.38l23.07,48.82Zm-18.61-17.64l-8.12-17.58-8.24,17.58h16.35Z"/><path class="d" d="M630.18,348.4c-2.44,2.97-5.4,5.33-8.88,7.08-3.48,1.75-7.31,2.62-11.5,2.62-3.62,0-7.02-.66-10.19-1.98-3.17-1.32-5.93-3.12-8.28-5.4-2.35-2.28-4.2-4.95-5.55-8.02-1.35-3.07-2.03-6.38-2.03-9.92s.68-6.84,2.03-9.92c1.35-3.07,3.21-5.76,5.55-8.06,2.35-2.3,5.11-4.1,8.28-5.4,3.17-1.3,6.57-1.95,10.19-1.95,4.19,0,8.02,.87,11.5,2.62,3.48,1.75,6.38,4.03,8.7,6.83l-6.53,6.71c-1.51-2.16-3.45-3.9-5.83-5.22-2.38-1.32-4.99-1.98-7.84-1.98-2.28,0-4.42,.44-6.44,1.31-2.01,.87-3.77,2.05-5.28,3.54-1.51,1.48-2.7,3.21-3.57,5.19-.88,1.97-1.31,4.08-1.31,6.32s.44,4.28,1.31,6.26c.87,1.97,2.06,3.7,3.57,5.19,1.5,1.48,3.26,2.66,5.28,3.54,2.01,.88,4.16,1.31,6.44,1.31,3.01,0,5.67-.68,7.99-2.04,2.32-1.36,4.25-3.16,5.8-5.4l6.59,6.77Z"/><path class="d" d="M667.34,357.19h-32.22v-48.76h32.22v7.81h-22.95v11.66h22.64v7.63h-22.64v13.42h22.95v8.24Z"/></g><g><path class="c" d="M338.86,391.83c-.31-.29-.46-.65-.46-1.07v-19.61c0-.44,.15-.81,.46-1.09,.31-.28,.69-.42,1.14-.42s.86,.14,1.16,.42c.3,.28,.45,.64,.45,1.09v19.61c0,.43-.15,.78-.45,1.07s-.68,.43-1.16,.43-.83-.14-1.14-.43Z"/><path class="c" d="M352.83,391.84c-.3-.28-.45-.64-.45-1.09v-19.61c0-.44,.15-.81,.45-1.09,.3-.28,.67-.42,1.12-.42,.23,0,.45,.05,.68,.16,.23,.11,.41,.24,.55,.39l13.43,16.8v-15.84c0-.44,.15-.81,.46-1.09,.31-.28,.69-.42,1.14-.42s.83,.14,1.12,.42c.3,.28,.45,.64,.45,1.09v19.61c0,.44-.15,.81-.45,1.09-.3,.28-.67,.42-1.12,.42-.23,0-.46-.04-.69-.13-.24-.09-.42-.22-.54-.39l-13.43-16.8v15.81c0,.43-.15,.78-.45,1.07-.3,.29-.68,.43-1.16,.43s-.83-.14-1.12-.42Z"/><path class="c" d="M406.22,370.07c.31,.29,.46,.65,.46,1.07v19.61c0,.43-.16,.78-.48,1.07-.32,.29-.69,.43-1.12,.43s-.83-.14-1.14-.43-.46-.65-.46-1.07v-14.39l-7.46,14.28c-.35,.5-.81,.75-1.39,.75-.68,0-1.17-.3-1.48-.9l-7.36-13.87v14.13c0,.43-.15,.78-.46,1.07-.31,.29-.69,.43-1.14,.43s-.83-.14-1.14-.43-.46-.65-.46-1.07v-19.61c0-.42,.15-.78,.46-1.07s.69-.43,1.14-.43c.62,0,1.09,.27,1.42,.81l9.15,17.23,8.9-17.23c.33-.54,.8-.81,1.42-.81,.45,0,.83,.14,1.14,.43Z"/><path class="c" d="M422.22,391.07c-1.86-.98-3.3-2.36-4.33-4.13-1.03-1.77-1.54-3.77-1.54-6.01s.51-4.24,1.54-5.99c1.03-1.76,2.47-3.13,4.33-4.11,1.86-.99,3.98-1.48,6.36-1.48s4.47,.49,6.33,1.48c1.86,.98,3.31,2.36,4.34,4.11,1.04,1.76,1.56,3.76,1.56,5.99s-.52,4.24-1.56,6.01c-1.04,1.77-2.48,3.14-4.33,4.13-1.85,.98-3.96,1.48-6.35,1.48s-4.5-.49-6.36-1.48Zm11.08-2.42c1.4-.78,2.49-1.85,3.27-3.2,.78-1.35,1.17-2.86,1.17-4.52s-.39-3.17-1.17-4.52c-.78-1.35-1.86-2.41-3.25-3.19-1.39-.77-2.96-1.16-4.73-1.16s-3.34,.39-4.73,1.16c-1.39,.77-2.47,1.83-3.25,3.19-.78,1.35-1.17,2.86-1.17,4.52s.39,3.17,1.17,4.52c.78,1.35,1.87,2.42,3.27,3.2,1.4,.78,2.97,1.17,4.71,1.17s3.32-.39,4.71-1.17Z"/><path class="c" d="M450.93,391.83c-.31-.29-.46-.65-.46-1.07v-19.61c0-.44,.15-.81,.46-1.09,.31-.28,.69-.42,1.14-.42h7.36c1.38,0,2.6,.26,3.67,.77s1.91,1.23,2.51,2.14c.61,.92,.91,1.96,.91,3.11,0,.95-.27,1.8-.82,2.55-.54,.75-1.29,1.36-2.23,1.82,1.4,.31,2.5,.93,3.3,1.85,.8,.93,1.2,2.1,1.2,3.53,0,1.31-.33,2.49-1,3.53-.67,1.04-1.6,1.85-2.8,2.43-1.2,.58-2.56,.87-4.08,.87h-8.01c-.45,0-.83-.14-1.14-.43Zm8.5-12.89c1.21,0,2.18-.28,2.91-.84,.73-.56,1.09-1.37,1.09-2.43s-.36-1.87-1.09-2.42c-.73-.55-1.7-.83-2.91-.83h-5.76v6.52h5.76Zm.65,10.54c1.44,0,2.6-.35,3.48-1.06,.88-.7,1.32-1.7,1.32-3,0-1.2-.44-2.11-1.31-2.75-.87-.64-2.04-.96-3.5-.96h-6.41v7.76h6.41Z"/><path class="c" d="M477.82,391.83c-.31-.29-.46-.65-.46-1.07v-19.61c0-.44,.15-.81,.46-1.09,.31-.28,.69-.42,1.14-.42s.86,.14,1.16,.42c.3,.28,.45,.64,.45,1.09v19.61c0,.43-.15,.78-.45,1.07-.3,.29-.68,.43-1.16,.43s-.83-.14-1.14-.43Z"/><path class="c" d="M491.8,391.83c-.3-.29-.45-.65-.45-1.07v-19.61c0-.42,.15-.78,.46-1.07,.31-.29,.68-.43,1.11-.43s.83,.14,1.14,.43c.31,.29,.46,.65,.46,1.07v18.1h11.15c.45,0,.83,.14,1.14,.43,.31,.29,.46,.65,.46,1.07s-.15,.78-.46,1.07c-.31,.29-.69,.43-1.14,.43h-12.76c-.45,0-.83-.14-1.13-.43Z"/><path class="c" d="M516.22,391.83c-.31-.29-.46-.65-.46-1.07v-19.61c0-.44,.15-.81,.46-1.09,.31-.28,.69-.42,1.14-.42s.86,.14,1.16,.42c.3,.28,.45,.64,.45,1.09v19.61c0,.43-.15,.78-.45,1.07-.3,.29-.68,.43-1.16,.43s-.83-.14-1.14-.43Z"/><path class="c" d="M547.89,390.78c0,.41-.15,.75-.46,1.04s-.69,.43-1.14,.43c-.31,0-.6-.08-.88-.25-.28-.16-.48-.39-.6-.68l-1.73-4.05h-11.06l-1.76,4.05c-.14,.29-.35,.52-.62,.68-.27,.16-.55,.25-.86,.25-.45,0-.83-.15-1.12-.45-.3-.3-.45-.65-.45-1.06,0-.19,.05-.41,.15-.67l8.66-19.43c.31-.68,.81-1.01,1.51-1.01,.74,0,1.24,.34,1.51,1.01l8.69,19.49c.1,.25,.15,.46,.15,.64Zm-14.79-6h8.91l-4.41-10.31-4.5,10.31Z"/><path class="c" d="M571.96,390.9c0,.39-.14,.71-.42,.97-.28,.26-.65,.39-1.13,.39-.6,0-1.06-.24-1.39-.72l-5.3-7.99h-4.5v7.21c0,.43-.15,.78-.45,1.07-.3,.29-.68,.43-1.16,.43s-.83-.14-1.14-.43c-.31-.29-.46-.65-.46-1.07v-19.61c0-.44,.15-.81,.46-1.09,.31-.28,.69-.42,1.14-.42h5.55c1.52,0,2.88,.3,4.08,.9,1.2,.6,2.14,1.44,2.8,2.52,.67,1.08,1,2.32,1,3.71s-.37,2.59-1.11,3.65c-.74,1.06-1.75,1.86-3.02,2.4l4.71,7.12c.2,.31,.31,.63,.31,.96Zm-8.78-10.14c1.4,0,2.55-.37,3.45-1.11,.9-.74,1.36-1.7,1.36-2.88,0-1.27-.45-2.32-1.36-3.13-.9-.81-2.05-1.22-3.45-1.22h-3.94v8.34h3.94Z"/><path class="c" d="M580.58,391.83c-.31-.29-.46-.65-.46-1.07v-19.61c0-.44,.15-.81,.46-1.09,.31-.28,.69-.42,1.14-.42s.86,.14,1.16,.42c.3,.28,.45,.64,.45,1.09v19.61c0,.43-.15,.78-.45,1.07-.3,.29-.68,.43-1.16,.43s-.83-.14-1.14-.43Z"/><path class="c" d="M598.87,391.07c-1.86-.98-3.3-2.36-4.33-4.13-1.03-1.77-1.54-3.77-1.54-6.01s.51-4.24,1.54-5.99c1.03-1.76,2.47-3.13,4.33-4.11,1.86-.99,3.98-1.48,6.36-1.48s4.47,.49,6.33,1.48c1.86,.98,3.31,2.36,4.34,4.11,1.04,1.76,1.56,3.76,1.56,5.99s-.52,4.24-1.56,6.01c-1.04,1.77-2.48,3.14-4.33,4.13-1.85,.98-3.97,1.48-6.35,1.48s-4.5-.49-6.36-1.48Zm11.08-2.42c1.4-.78,2.49-1.85,3.27-3.2,.78-1.35,1.17-2.86,1.17-4.52s-.39-3.17-1.17-4.52c-.78-1.35-1.86-2.41-3.25-3.19-1.39-.77-2.96-1.16-4.73-1.16s-3.34,.39-4.73,1.16c-1.39,.77-2.47,1.83-3.25,3.19-.78,1.35-1.17,2.86-1.17,4.52s.39,3.17,1.17,4.52c.78,1.35,1.87,2.42,3.27,3.2,1.4,.78,2.97,1.17,4.71,1.17s3.32-.39,4.71-1.17Z"/></g></g></svg>