<?xml version="1.0" encoding="UTF-8"?><svg id="a" xmlns="http://www.w3.org/2000/svg" viewBox="0 0 700 700"><defs><style>.b{fill:#fff;}</style></defs><path class="b" d="M349.9,559.95c-36.55-1.78-73.4-1.3-109.6-5.86-58.07-7.31-97.31-50.05-98.99-107.82-1.84-63.29-2.26-126.73-.18-190,2.26-68.99,48.39-113.38,117.98-115.07,60.65-1.47,121.39-1.58,182.03,0,71.09,1.86,117.72,50.97,118.54,122.77,.63,55.54,.87,111.11,0,166.64-.66,41.91-12.22,79.62-49.82,104.64-20.48,13.63-43.37,20.62-67.72,21.31-30.7,.87-61.45,.21-92.18,.21-.02,1.06-.05,2.12-.07,3.17Zm-174.62-207.68l1.19,.04c0,15.65-.34,31.3,.09,46.94,.44,16,.43,32.16,2.72,47.94,6.39,44.1,26.79,67.82,70.37,70.08,65.94,3.41,132.27,3.67,198.23,.74,44.63-1.98,67.61-26.97,71.77-71.08,3.4-36.12,3.89-72.6,3.84-108.92-.04-31.59-1.06-63.34-4.54-94.7-3.91-35.17-29.33-58.59-64.81-62.5-66.39-7.33-133-6.27-199.45-1.7-47.29,3.25-72.91,30.51-75.58,77.11-1.83,31.98-2.59,64.03-3.83,96.04Z"/><path class="b" d="M301.9,404.81c-22.11-2.46-36.72-12.97-45.19-33.92h19.65c-22.69-8.86-35.26-24.51-37-48.63,6.97,1.97,13.61,3.84,21.84,6.16-22.44-25.17-26.69-45.01-14.61-65.78,26.35,30.4,59.22,47.72,99.2,50.48,.68-8.17,.31-15.98,2.1-23.27,8.65-35.14,51.57-48.41,78.85-24.52,3.03,2.65,5.71,3.43,9.2,2.15,8.13-2.97,16.24-6.02,24.73-9.18-3.19,10.57-10.38,18.13-18.48,25.65,7.9-2.06,15.79-4.11,23.69-6.17l1.1,1.22c-6.2,6.22-12.21,12.65-18.7,18.56-2.89,2.63-4.47,4.93-4.47,9.1-.11,63.66-43.85,128.97-119.38,138.77-32.92,4.27-63.64-2.14-91.42-18.79,11.5-1.57,23.61-2.5,35.39-5.02,11.96-2.55,22.68-8.46,33.5-16.84Z"/></svg>